; OM File Header - Saved 2020/09/11 12:25:46
; (6.17 :patc (om-make-point 226 10) (om-make-point 123 26) (om-make-point 999 598) "" 183 0 nil "2020/09/11 12:25:41")
; End File Header
(in-package :om)(load-lib-for (quote ("OM-JI")))(setf *om-current-persistent* (om-load-patch1 "GERAL - rt-mc" (quote ((let ((box (om-load-boxcall (quote genfun) "RT->MC 4" (quote rt->mc) (quote ((om-load-inputfun (quote input-funbox) "Convert list of ratios for midicent." "RATIO" 11/8) (om-load-inputfun (quote input-funbox) "This will be a note. This note will be the fundamental of the list of ratios." "FUNDAMENTAL" 6000))) (om-make-point 167 201) nil nil nil nil 1))) (when (fboundp (quote set-active)) (set-active box nil)) box) (let ((box (om-load-boxcall (quote genfun) "DIAMOND" (quote diamond) (quote ((om-load-inputfun (quote input-funbox) "Limit-n for the diamond." "LIMITE" 11))) (om-make-point 145 90) nil nil nil nil 2))) (when (fboundp (quote set-active)) (set-active box nil)) box) (let ((box (om-load-boxcall (quote bastype) "aux 9" (quote t) (quote nil) (om-make-point 203 143) (om-make-point 44 28) 6000 "6000" nil))) (when (fboundp (quote set-active)) (set-active box nil)) box) (let ((box (om-load-editor-box1 "CHORD-SEQ 2" (quote chord-seq) (quote ((om-load-inputfun (quote input-funbox) "object" "self" nil) (om-load-inputfun (quote input-funbox) "pitches (mc): list or list of lists" "lmidic" (list 6000)) (om-load-inputfun (quote input-funbox) "onsets (ms): list" "lonset" (list 0 1000)) (om-load-inputfun (quote input-funbox) "durations (ms): list or list of lists" "ldur" (list 1000)) (om-load-inputfun (quote input-funbox) "velocities (0-127): list or list of lists" "lvel" (list 100)) (om-load-inputfun (quote input-funbox) "offsets (ms): list or list of lists" "loffset" (list 0)) (om-load-inputfun (quote input-funbox) "MIDI channels (1-16): list or list of lists" "lchan" (list 9)) (om-load-inputfun (quote input-funbox) "relative chords duration (0-100)" "legato" 0))) (om-make-point 78 290) (om-make-point 454 200) (let ((newobj (when (find-class (quote chord-seq) nil) (make-instance (quote chord-seq) :lmidic (quote ((6000 7902 8786 9369 9804 10151 10441 10688 10905) (4098 6000 6884 7467 7902 8249 8539 8786 9003) (3214 5116 6000 6583 7018 7365 7654 7902 8119) (2631 4533 5417 6000 6435 6782 7072 7319 7536) (2196 4098 4982 5565 6000 6347 6637 6884 7101) (1849 3751 4635 5218 5653 6000 6289 6537 6754) (1559 3461 4346 4928 5363 5711 6000 6248 6464) (1312 3214 4098 4681 5116 5463 5752 6000 6217) (1095 2997 3881 4464 4899 5246 5536 5783 6000))) :lonset (quote (0 1000 2000 3000 4000 5000 6000 7000 8000 9000)) :ldur (quote ((1000 1000 1000 1000 1000 1000 1000 1000 1000) (1000 1000 1000 1000 1000 1000 1000 1000 1000) (1000 1000 1000 1000 1000 1000 1000 1000 1000) (1000 1000 1000 1000 1000 1000 1000 1000 1000) (1000 1000 1000 1000 1000 1000 1000 1000 1000) (1000 1000 1000 1000 1000 1000 1000 1000 1000) (1000 1000 1000 1000 1000 1000 1000 1000 1000) (1000 1000 1000 1000 1000 1000 1000 1000 1000) (1000 1000 1000 1000 1000 1000 1000 1000 1000))) :lvel (quote ((100 100 100 100 100 100 100 100 100) (100 100 100 100 100 100 100 100 100) (100 100 100 100 100 100 100 100 100) (100 100 100 100 100 100 100 100 100) (100 100 100 100 100 100 100 100 100) (100 100 100 100 100 100 100 100 100) (100 100 100 100 100 100 100 100 100) (100 100 100 100 100 100 100 100 100) (100 100 100 100 100 100 100 100 100))) :loffset (quote ((0 0 0 0 0 0 0 0 0) (0 0 0 0 0 0 0 0 0) (0 0 0 0 0 0 0 0 0) (0 0 0 0 0 0 0 0 0) (0 0 0 0 0 0 0 0 0) (0 0 0 0 0 0 0 0 0) (0 0 0 0 0 0 0 0 0) (0 0 0 0 0 0 0 0 0) (0 0 0 0 0 0 0 0 0))) :lchan (quote ((3 3 3 3 3 3 3 3 3) (3 3 3 3 3 3 3 3 3) (3 3 3 3 3 3 3 3 3) (3 3 3 3 3 3 3 3 3) (3 3 3 3 3 3 3 3 3) (3 3 3 3 3 3 3 3 3) (3 3 3 3 3 3 3 3 3) (3 3 3 3 3 3 3 3 3) (3 3 3 3 3 3 3 3 3))) :legato 0)))) (load-port-info newobj (quote ((0 0 0 0 0 0 0 0 0) (0 0 0 0 0 0 0 0 0) (0 0 0 0 0 0 0 0 0) (0 0 0 0 0 0 0 0 0) (0 0 0 0 0 0 0 0 0) (0 0 0 0 0 0 0 0 0) (0 0 0 0 0 0 0 0 0) (0 0 0 0 0 0 0 0 0) (0 0 0 0 0 0 0 0 0)))) (init-mus-color newobj (quote nil)) (set-extra-pairs newobj (quote nil)) (set-patch-pairs newobj (quote nil)) (set-name newobj nil) (set-tonalite newobj nil) newobj) nil nil (pairlis (quote (scale show-stems cursor-mode obj-mode score-mode winpos winsize mode grillestep notechancolor? zoom player inport outport deltapict cmnpref staff fontsize approx)) (list nil (quote t) (quote :normal) 1 0 (om-make-point 400 20) (om-make-point 370 280) 0 1000 nil 1 (quote :osc-scoreplayer) nil nil (om-make-point 0 0) (let ((newobj (make-instance (quote edition-values)))) (setf (paper-size newobj) (om-make-point 600 800)) (setf (top-margin newobj) 2) (setf (left-margin newobj) 1) (setf (right-margin newobj) 1) (setf (bottom-margin newobj) 1) (setf (orientation newobj) nil) (setf (scale newobj) nil) (setf (system-space newobj) (quote (1))) (setf (system-color newobj) (quote nil)) (setf (line-space newobj) 1) (setf (title newobj) nil) (setf (show-title? newobj) nil) (setf (show-page? newobj) nil) (setf (sheet-id newobj) nil) (setf (page-mode newobj) nil) newobj) (quote ggff) 24 8)) t nil nil nil))) (when (fboundp (quote set-active)) (set-active box nil)) box) (let ((box (om-load-boxcall (quote bastype) "aux 8" (quote t) (quote nil) (om-make-point 155 51) (om-make-point 32 28) 17 "17" nil))) (when (fboundp (quote set-active)) (set-active box nil)) box) (let ((box (om-load-boxcall (quote bastype) "aux 7" (quote t) (quote nil) (om-make-point 424 260) (om-make-point 35 28) (list 3) "(3)" nil))) (when (fboundp (quote set-active)) (set-active box nil)) box) (let ((box (om-load-boxcall (quote genfun) "RT->MC 3" (quote rt->mc) (quote ((om-load-inputfun (quote input-funbox) "Convert list of ratios for midicent." "RATIO" 11/8) (om-load-inputfun (quote input-funbox) "This will be a note. This note will be the fundamental of the list of ratios." "FUNDAMENTAL" 6000))) (om-make-point 861 190) nil nil nil nil 1))) (when (fboundp (quote set-active)) (set-active box nil)) box) (let ((box (om-load-boxcall (quote bastype) "aux 6" (quote t) (quote nil) (om-make-point 885 160) (om-make-point 44 28) 6000 "6000" nil))) (when (fboundp (quote set-active)) (set-active box nil)) box) (let ((box (om-load-boxcomment "comment 3" (om-make-point 176 60) (quote "Este objeto transforma razões em midicents.") "" (om-make-point 218 219) nil (om-make-color 0 0 0) (om-make-font "Verdana" 27/2 :family "Verdana" :style (quote (:plain)) :mode (quote nil))))) (when (fboundp (quote set-active)) (set-active box nil)) box) (let ((box (om-load-boxcomment "comment 2" (om-make-point 236 70) (quote "Aqui temos a nota de referência da Afinação Justa. Esta nota deve ser colocada sem parênteses.") "" (om-make-point 249 134) nil (om-make-color 0 0 0) (om-make-font "Verdana" 27/2 :family "Verdana" :style (quote (:plain)) :mode (quote nil))))) (when (fboundp (quote set-active)) (set-active box nil)) box) (let ((box (om-load-boxcall (quote bastype) "aux 5" (quote t) (quote nil) (om-make-point 833 160) (om-make-point 43 28) 11/8 "11/8" nil))) (when (fboundp (quote set-active)) (set-active box nil)) box) (let ((box (om-load-editor-box1 "NOTE" (quote note) (quote ((om-load-inputfun (quote input-funbox) "object" "self" nil) (om-load-inputfun (quote input-funbox) "pitch (midicents)" "midic" 6000) (om-load-inputfun (quote input-funbox) "velocity (0-127)" "vel" 80) (om-load-inputfun (quote input-funbox) "duration (ms)" "dur" 1000) (om-load-inputfun (quote input-funbox) "MIDI channel (1-16)" "chan" 1))) (om-make-point 853 268) (om-make-point 82 101) (if (find-class (quote note) nil) (let ((newobj (make-instance (quote note) :midic 6551.318 :vel 80 :dur 1000 :chan 1 :from-file t))) (load-port-info newobj (quote nil)) (init-mus-color newobj (quote nil)) (set-extra-pairs newobj (quote nil)) (set-patch-pairs newobj (quote nil)) (set-name newobj nil) (set-tonalite newobj nil) newobj)) nil nil (pairlis (quote (scale show-stems cursor-mode obj-mode score-mode winpos winsize mode grillestep notechancolor? zoom player inport outport deltapict cmnpref staff fontsize approx)) (list nil (quote t) (quote :normal) 0 0 (om-make-point 300 20) (om-make-point 370 280) 0 1000 nil 1 (quote :osc-scoreplayer) nil nil (om-make-point 0 0) (let ((newobj (make-instance (quote edition-values)))) (setf (paper-size newobj) (om-make-point 600 800)) (setf (top-margin newobj) 2) (setf (left-margin newobj) 1) (setf (right-margin newobj) 1) (setf (bottom-margin newobj) 1) (setf (orientation newobj) nil) (setf (scale newobj) nil) (setf (system-space newobj) (quote (1))) (setf (system-color newobj) (quote nil)) (setf (line-space newobj) 1) (setf (title newobj) nil) (setf (show-title? newobj) nil) (setf (show-page? newobj) nil) (setf (sheet-id newobj) nil) (setf (page-mode newobj) nil) newobj) (quote ggff) 24 8)) t nil nil nil))) (when (fboundp (quote set-active)) (set-active box nil)) box) (let ((box (om-load-boxcall (quote genfun) "RT->MC 2" (quote rt->mc) (quote ((om-load-inputfun (quote input-funbox) "Convert list of ratios for midicent." "RATIO" 11/8) (om-load-inputfun (quote input-funbox) "This will be a note. This note will be the fundamental of the list of ratios." "FUNDAMENTAL" 6000))) (om-make-point 749 190) nil nil nil nil 1))) (when (fboundp (quote set-active)) (set-active box nil)) box) (let ((box (om-load-boxcall (quote bastype) "aux 4" (quote t) (quote nil) (om-make-point 773 160) (om-make-point 44 28) 6000 "6000" nil))) (when (fboundp (quote set-active)) (set-active box nil)) box) (let ((box (om-load-boxcall (quote bastype) "aux 3" (quote t) (quote nil) (om-make-point 684 160) (om-make-point 88 28) (list 3/2 4/3 7/4) "(3/2 4/3 7/4)" nil))) (when (fboundp (quote set-active)) (set-active box nil)) box) (let ((box (om-load-editor-box1 "CHORD" (quote chord) (quote ((om-load-inputfun (quote input-funbox) "object" "self" nil) (om-load-inputfun (quote input-funbox) "pitches (list of midicents)" "lmidic" (list 6000)) (om-load-inputfun (quote input-funbox) "velocities (list of values 0-127)" "lvel" (list 100)) (om-load-inputfun (quote input-funbox) "offsets (list of values in ms)" "loffset" (list 0)) (om-load-inputfun (quote input-funbox) "durations (list of values in ms)" "ldur" (list 1000)) (om-load-inputfun (quote input-funbox) "MIDI channels (list of values 0-16)" "lchan" (list 3)))) (om-make-point 725 276) (om-make-point 110 89) (let ((thechord (make-instance (quote chord) :lmidic (quote (6702 6498 6969)) :ldur (quote (1000 1000 1000)) :lvel (quote (100 100 100)) :loffset (quote (0 0 0)) :lchan (quote (3 3 3))))) (load-port-info thechord (quote (0 0 0))) (init-mus-color thechord (quote nil)) (set-extra-pairs thechord (quote nil)) (set-tonalite thechord nil) thechord) nil nil (pairlis (quote (scale show-stems cursor-mode obj-mode score-mode winpos winsize mode grillestep notechancolor? zoom player inport outport deltapict cmnpref staff fontsize approx)) (list nil (quote t) (quote :normal) 0 0 (om-make-point 400 20) (om-make-point 648 260) 0 1000 nil 1 (quote :osc-scoreplayer) nil nil (om-make-point 0 0) (let ((newobj (make-instance (quote edition-values)))) (setf (paper-size newobj) (om-make-point 600 800)) (setf (top-margin newobj) 2) (setf (left-margin newobj) 1) (setf (right-margin newobj) 1) (setf (bottom-margin newobj) 1) (setf (orientation newobj) nil) (setf (scale newobj) nil) (setf (system-space newobj) (quote (1))) (setf (system-color newobj) (quote nil)) (setf (line-space newobj) 1) (setf (title newobj) nil) (setf (show-title? newobj) nil) (setf (show-page? newobj) nil) (setf (sheet-id newobj) nil) (setf (page-mode newobj) nil) newobj) (quote g) 24 8)) t nil nil nil))) (when (fboundp (quote set-active)) (set-active box nil)) box) (let ((box (om-load-boxcall (quote genfun) "RT->MC" (quote rt->mc) (quote ((om-load-inputfun (quote input-funbox) "Convert list of ratios for midicent." "RATIO" 11/8) (om-load-inputfun (quote input-funbox) "This will be a note. This note will be the fundamental of the list of ratios." "FUNDAMENTAL" 6000))) (om-make-point 597 194) nil nil nil nil 1))) (when (fboundp (quote set-active)) (set-active box nil)) box) (let ((box (om-load-boxcall (quote bastype) "aux 2" (quote t) (quote nil) (om-make-point 621 164) (om-make-point 44 28) 6000 "6000" nil))) (when (fboundp (quote set-active)) (set-active box nil)) box) (let ((box (om-load-boxcall (quote bastype) "aux" (quote t) (quote nil) (om-make-point 524 137) (om-make-point 135 28) (list (list 121/64) (list 1/3 1 5/3)) "((121/64) (1/3 1 5/3))" nil))) (when (fboundp (quote set-active)) (set-active box nil)) box) (let ((box (om-load-editor-box1 "CHORD-SEQ" (quote chord-seq) (quote ((om-load-inputfun (quote input-funbox) "object" "self" nil) (om-load-inputfun (quote input-funbox) "pitches (mc): list or list of lists" "lmidic" (list 6000)) (om-load-inputfun (quote input-funbox) "onsets (ms): list" "lonset" (list 0 1000)) (om-load-inputfun (quote input-funbox) "durations (ms): list or list of lists" "ldur" (list 1000)) (om-load-inputfun (quote input-funbox) "velocities (0-127): list or list of lists" "lvel" (list 100)) (om-load-inputfun (quote input-funbox) "offsets (ms): list or list of lists" "loffset" (list 0)) (om-load-inputfun (quote input-funbox) "MIDI channels (1-16): list or list of lists" "lchan" (list 1)) (om-load-inputfun (quote input-funbox) "relative chords duration (0-100)" "legato" 0))) (om-make-point 565 276) (om-make-point 146 135) (let ((newobj (when (find-class (quote chord-seq) nil) (make-instance (quote chord-seq) :lmidic (quote ((7103) (4098 6000 6884))) :lonset (quote (0 1000 2000)) :ldur (quote ((1000) (1000 1000 1000))) :lvel (quote ((100) (100 100 100))) :loffset (quote ((0) (0 0 0))) :lchan (quote ((1) (1 1 1))) :legato 0)))) (load-port-info newobj (quote ((0) (0 0 0)))) (init-mus-color newobj (quote nil)) (set-extra-pairs newobj (quote nil)) (set-patch-pairs newobj (quote nil)) (set-name newobj nil) (set-tonalite newobj nil) newobj) nil nil (pairlis (quote (scale show-stems cursor-mode obj-mode score-mode winpos winsize mode grillestep notechancolor? zoom player inport outport deltapict cmnpref staff fontsize approx)) (list nil (quote t) (quote :normal) 1 0 (om-make-point 400 20) (om-make-point 634 260) 0 1000 nil 1 (quote :osc-scoreplayer) nil nil (om-make-point 0 0) (let ((newobj (make-instance (quote edition-values)))) (setf (paper-size newobj) (om-make-point 600 800)) (setf (top-margin newobj) 2) (setf (left-margin newobj) 1) (setf (right-margin newobj) 1) (setf (bottom-margin newobj) 1) (setf (orientation newobj) nil) (setf (scale newobj) nil) (setf (system-space newobj) (quote (1))) (setf (system-color newobj) (quote nil)) (setf (line-space newobj) 1) (setf (title newobj) nil) (setf (show-title? newobj) nil) (setf (show-page? newobj) nil) (setf (sheet-id newobj) nil) (setf (page-mode newobj) nil) newobj) (quote g) 24 8)) t nil nil nil))) (when (fboundp (quote set-active)) (set-active box nil)) box) (let ((box (om-load-boxcomment "comment" (om-make-point 246 46) (quote "O objeto trabalha com lista, listas de lista e razões.") "" (om-make-point 634 78) nil (om-make-color 0 0 0) (om-make-font "Verdana" 27/2 :family "Verdana" :style (quote (:plain)) :mode (quote nil))))) (when (fboundp (quote set-active)) (set-active box nil)) box))) (quote ((1 1 0 0 nil 0) (2 0 0 1 nil 0) (4 0 1 0 nil 0) (0 0 3 1 nil 0) (5 0 3 6 nil 0) (10 0 6 0 nil 0) (7 0 6 1 nil 0) (6 0 11 1 nil 0) (14 0 12 0 nil 0) (13 0 12 1 nil 0) (12 0 15 1 nil 0) (18 0 16 0 nil 0) (17 0 16 1 nil 0) (16 0 19 1 nil 0))) nil 6.17))
