; OM File Header - Saved 2021/03/18 12:06:52
; (6.18 :patc (om-make-point 280 60) (om-make-point 476 75) (om-make-point 673 522) "" 183 0 nil "2021/03/18 12:06:52")
; End File Header
(in-package :om)(load-lib-for (quote ("OM-JI")))(setf *om-current-persistent* (om-load-patch1 "PARTCH - diamond-identity" (quote ((let ((box (om-load-boxcomment "comment" (om-make-point 203 59) (quote "LEFT OUTLET: Utonalities$$RIGHT OUTLET: Otonalities$") "" (om-make-point 165 252) nil (om-make-color 0 0 0) (om-make-font "Verdana" 12 :family "Verdana" :style (quote (:plain)) :mode (quote nil))))) (when (fboundp (quote set-active)) (set-active box nil)) box) (let ((box (om-load-boxcall (quote bastype) "aux 2" (quote t) (quote nil) (om-make-point 113 236) (om-make-point 44 28) 6000 "6000" nil))) (when (fboundp (quote set-active)) (set-active box nil)) box) (let ((box (om-load-boxcall (quote genfun) "RT->MC" (quote rt->mc) (quote ((om-load-inputfun (quote input-funbox) "Convert list of ratios for midicent." "RATIO" 11/8) (om-load-inputfun (quote input-funbox) "This will be a note. This note will be the fundamental of the list of ratios." "FUNDAMENTAL" 6000))) (om-make-point 89 266) nil nil nil nil 1))) (when (fboundp (quote set-active)) (set-active box nil)) box) (let ((box (om-load-boxcall (quote genfun) "DIAMOND-IDENTITY" (quote diamond-identity) (quote ((om-load-inputfun (quote input-funbox) "limit-n for the diamond" "IDENTITY" (list 11 19 97)))) (om-make-point 20 176) nil nil nil nil 2))) (when (fboundp (quote set-active)) (set-active box nil)) box) (let ((box (om-load-boxcall (quote genfun) "REVEL-CRIBLE" (quote revel-crible) (quote ((om-load-inputfun (quote input-funbox) "" "SELF" nil))) (om-make-point 17 101) nil nil nil nil 1))) (when (fboundp (quote set-active)) (set-active box nil)) box) (let ((box (om-load-boxcall (quote bastype) "aux" (quote t) (quote nil) (om-make-point 122 16) (om-make-point 67 28) (list 3 11 30) "(3 11 30)" nil))) (when (fboundp (quote set-active)) (set-active box nil)) box) (let ((box (om-load-editor-box1 "CRIBLE" (quote crible) (quote ((om-load-inputfun (quote input-funbox) "object" "self" nil) (om-load-inputfun (quote input-funbox) "" "cr-exp" (list 2 0 18)))) (om-make-point 47 49) (om-make-point 70 50) (if (find-class (quote crible) nil) (make-instance (quote crible) :cr-exp (list 3 11 30) :from-file t)) nil nil (pairlis (quote (winsize winpos)) (list (om-make-point 335 275) (om-make-point 10 40))) nil nil nil nil))) (when (fboundp (quote set-active)) (set-active box nil)) box) (let ((box (om-load-editor-box1 "CHORD-SEQ" (quote chord-seq) (quote ((om-load-inputfun (quote input-funbox) "object" "self" nil) (om-load-inputfun (quote input-funbox) "pitches (mc): list or list of lists" "lmidic" (list 6000)) (om-load-inputfun (quote input-funbox) "onsets (ms): list" "lonset" (list 0 1000)) (om-load-inputfun (quote input-funbox) "durations (ms): list or list of lists" "ldur" (list 1000)) (om-load-inputfun (quote input-funbox) "velocities (0-127): list or list of lists" "lvel" (list 100)) (om-load-inputfun (quote input-funbox) "offsets (ms): list or list of lists" "loffset" (list 0)) (om-load-inputfun (quote input-funbox) "MIDI channels (1-16): list or list of lists" "lchan" (list 1)) (om-load-inputfun (quote input-funbox) "relative chords duration (0-100)" "legato" 0))) (om-make-point 49 383) (om-make-point 372 149) (let ((newobj (when (find-class (quote chord-seq) nil) (make-instance (quote chord-seq) :lmidic (quote ((6000 6418 6754 7035 7277 7489 7678) (5582 6000 6336 6617 6859 7072 7261) (5246 5664 6000 6281 6523 6736 6925) (4965 5383 5719 6000 6242 6454 6643) (4723 5141 5477 5758 6000 6212 6401) (4511 4928 5264 5546 5788 6000 6189) (4322 4739 5075 5357 5599 5811 6000))) :lonset (quote (0 1000 2000 3000 4000 5000 6000 7000)) :ldur (quote ((1000 1000 1000 1000 1000 1000 1000) (1000 1000 1000 1000 1000 1000 1000) (1000 1000 1000 1000 1000 1000 1000) (1000 1000 1000 1000 1000 1000 1000) (1000 1000 1000 1000 1000 1000 1000) (1000 1000 1000 1000 1000 1000 1000) (1000 1000 1000 1000 1000 1000 1000))) :lvel (quote ((100 100 100 100 100 100 100) (100 100 100 100 100 100 100) (100 100 100 100 100 100 100) (100 100 100 100 100 100 100) (100 100 100 100 100 100 100) (100 100 100 100 100 100 100) (100 100 100 100 100 100 100))) :loffset (quote ((0 0 0 0 0 0 0) (0 0 0 0 0 0 0) (0 0 0 0 0 0 0) (0 0 0 0 0 0 0) (0 0 0 0 0 0 0) (0 0 0 0 0 0 0) (0 0 0 0 0 0 0))) :lchan (quote ((1 1 1 1 1 1 1) (1 1 1 1 1 1 1) (1 1 1 1 1 1 1) (1 1 1 1 1 1 1) (1 1 1 1 1 1 1) (1 1 1 1 1 1 1) (1 1 1 1 1 1 1))) :legato 0)))) (load-port-info newobj (quote ((0 0 0 0 0 0 0) (0 0 0 0 0 0 0) (0 0 0 0 0 0 0) (0 0 0 0 0 0 0) (0 0 0 0 0 0 0) (0 0 0 0 0 0 0) (0 0 0 0 0 0 0)))) (init-mus-color newobj (quote nil)) (set-extra-pairs newobj (quote nil)) (set-patch-pairs newobj (quote nil)) (set-name newobj nil) (set-tonalite newobj nil) newobj) nil nil (pairlis (quote (approx fontsize staff cmnpref deltapict outport inport player zoom notechancolor? grillestep mode winsize winpos score-mode obj-mode cursor-mode show-stems scale)) (list 2 24 (quote g) (let ((newobj (make-instance (quote edition-values)))) (setf (paper-size newobj) (om-make-point 600 800)) (setf (top-margin newobj) 2) (setf (left-margin newobj) 1) (setf (right-margin newobj) 1) (setf (bottom-margin newobj) 1) (setf (orientation newobj) nil) (setf (scale newobj) nil) (setf (system-space newobj) (quote (1))) (setf (system-color newobj) (quote nil)) (setf (line-space newobj) 1) (setf (title newobj) nil) (setf (show-title? newobj) nil) (setf (show-page? newobj) nil) (setf (sheet-id newobj) nil) (setf (page-mode newobj) nil) newobj) (om-make-point 0 0) nil nil (quote :osc-scoreplayer) 1 nil 1000 0 (om-make-point 370 280) (om-make-point 400 20) 0 1 (quote :normal) (quote t) nil)) t nil nil nil))) (when (fboundp (quote set-active)) (set-active box nil)) box) (let ((box (om-load-boxcomment "comment" (om-make-point 285 79) (quote "Cria a Tonalidade Diamante seguindo a teoria de Harry Partch porém usando umas lista de identidades selecionadas.") "" (om-make-point 163 193) nil (om-make-color 0 0 0) (om-make-font "Verdana" 12 :family "Verdana" :style (quote (:plain)) :mode (quote nil))))) (when (fboundp (quote set-active)) (set-active box nil)) box))) (quote ((3 1 2 0 nil 0) (1 0 2 1 nil 0) (4 0 3 0 nil 0) (6 0 4 0 nil 0) (5 0 6 1 nil 0) (2 0 7 1 nil 0))) nil 6.18))
