; OM File Header - Saved 2020/09/11 12:25:46
; (6.17 :patc (om-make-point 982 10) (om-make-point -8 -8) (om-make-point 1366 725) "" 183 0 "2020/09/11 12:18:55" "2020/09/11 12:24:58")
; End File Header
(in-package :om)(load-lib-for (quote ("OM-JI")))(setf *om-current-persistent* (om-load-patch1 "WILSON - mos-check" (quote ((let ((box (om-load-boxcall (quote genfun) "MOS-CHECK" (quote mos-check) (quote ((om-load-inputfun (quote input-funbox) "fundamental note of sobreposition" "INTERVAL" 4/3) (om-load-inputfun (quote input-funbox) "Just Intonation interval" "FUND" 6000) (om-load-inputfun (quote input-funbox) "high note" "AGUDA" 7200) (om-load-inputfun (quote input-funbox) "number of sobreposition" "SOBREPOSITION" 11) (om-load-inputfun (quote input-funbox) "interval number of the MOS" "NUMBER_OF_INTERVAL" 2))) (om-make-point 242 185) (om-make-point 427 74) nil nil nil 1))) (when (fboundp (quote set-active)) (set-active box nil)) box) (let ((box (om-load-boxcall (quote bastype) "aux 9" (quote t) (quote nil) (om-make-point 262 136) (om-make-point 37 28) 4/3 "4/3" nil))) (when (fboundp (quote set-active)) (set-active box nil)) box) (let ((box (om-load-boxcall (quote bastype) "aux 8" (quote t) (quote nil) (om-make-point 351 137) (om-make-point 44 28) 6000 "6000" nil))) (when (fboundp (quote set-active)) (set-active box nil)) box) (let ((box (om-load-boxcall (quote bastype) "aux 7" (quote t) (quote nil) (om-make-point 434 137) (om-make-point 44 28) 7200 "7200" nil))) (when (fboundp (quote set-active)) (set-active box nil)) box) (let ((box (om-load-boxcomment "comment 7" (om-make-point 96 47) (quote "Maior número de sobreposição.") "" (om-make-point 500 88) nil (om-make-color 0 0 0) (om-make-font "Verdana" 12 :family "Verdana" :style (quote (:plain)) :mode (quote nil))))) (when (fboundp (quote set-active)) (set-active box nil)) box) (let ((box (om-load-boxcomment "comment 6" (om-make-point 73 48) (quote "Nota mais aguda em midicents.") "" (om-make-point 421 84) nil (om-make-color 0 0 0) (om-make-font "Verdana" 12 :family "Verdana" :style (quote (:plain)) :mode (quote nil))))) (when (fboundp (quote set-active)) (set-active box nil)) box) (let ((box (om-load-boxcomment "comment 5" (om-make-point 78 47) (quote "Nota mais grave em midicents.") "" (om-make-point 338 83) nil (om-make-color 0 0 0) (om-make-font "Verdana" 12 :family "Verdana" :style (quote (:plain)) :mode (quote nil))))) (when (fboundp (quote set-active)) (set-active box nil)) box) (let ((box (om-load-boxcomment "comment 4" (om-make-point 78 47) (quote "Intervalo gerador") "" (om-make-point 260 83) nil (om-make-color 0 0 0) (om-make-font "Verdana" 12 :family "Verdana" :style (quote (:plain)) :mode (quote nil))))) (when (fboundp (quote set-active)) (set-active box nil)) box) (let ((box (om-load-boxcomment "comment 3" (om-make-point 238 68) (quote "Caso o compositor queria experimentar outras configurações de intervalos que não 2.$") "" (om-make-point 589 94) nil (om-make-color 0 0 0) (om-make-font "Verdana" 12 :family "Verdana" :style (quote (:plain)) :mode (quote nil))))) (when (fboundp (quote set-active)) (set-active box nil)) box) (let ((box (om-load-boxcall (quote bastype) "aux 6" (quote t) (quote nil) (om-make-point 593 155) (om-make-point 26 28) 2 "2" nil))) (when (fboundp (quote set-active)) (set-active box nil)) box) (let ((box (om-load-boxcall (quote bastype) "aux 5" (quote t) (quote nil) (om-make-point 516 148) (om-make-point 32 28) 23 "23" nil))) (when (fboundp (quote set-active)) (set-active box nil)) box) (let ((box (om-load-boxcomment "comment 2" (om-make-point 305 67) (quote "O objeto vai checar todas as sobreposição de 1 até 23 para ver quais são MOS seguindo o intervalo gerador 4/3 com a nota mais grave 6000 e nota mais aguda 7200.") "" (om-make-point 673 189) nil (om-make-color 0 0 0) (om-make-font "Verdana" 27/2 :family "Verdana" :style (quote (:plain)) :mode (quote nil))))) (when (fboundp (quote set-active)) (set-active box nil)) box) (let ((box (om-load-editor-box1 "TEXT-BOX 2" (quote text-box) (quote ((om-load-inputfun (quote input-funbox) "dialog-item text (string)" "text" "untitled"))) (om-make-point 259 270) (om-make-point 238 40) (om-make-dialog-item (quote text-box) (om-make-point 1 1) (om-make-point 210 16) "(1 2 4 6 11 16)" :font (om-make-font "Verdana" 11.25 :family "Verdana" :style (quote (:plain)) :mode (quote nil))) nil nil (pairlis (quote (winsize winpos)) (list (om-make-point 335 275) (om-make-point 10 40))) nil nil nil nil))) (when (fboundp (quote set-active)) (set-active box nil)) box) (let ((box (om-load-boxcomment "comment" (om-make-point 171 79) (quote "Configurações com 1, 2, 4, 6, 11 ou 16 sobreposições serão MOS.") "" (om-make-point 503 274) nil (om-make-color 0 0 0) (om-make-font "Verdana" 27/2 :family "Verdana" :style (quote (:plain)) :mode (quote nil))))) (when (fboundp (quote set-active)) (set-active box nil)) box) (let ((box (om-load-boxcall (quote genfun) "MOS" (quote mos) (quote ((om-load-inputfun (quote input-funbox) "Fundamental note of sobreposition" "RATIO" 4/3) (om-load-inputfun (quote input-funbox) "Just Intonation interval" "GRAVE" 6000) (om-load-inputfun (quote input-funbox) "High note" "AGUDA" 7200) (om-load-inputfun (quote input-funbox) "Number of sobreposition" "SOBREPOSITION" 11))) (om-make-point 781 303) (om-make-point 158 74) nil nil nil 1))) (when (fboundp (quote set-active)) (set-active box nil)) box) (let ((box (om-load-boxcall (quote bastype) "aux 4" (quote t) (quote nil) (om-make-point 765 268) (om-make-point 37 28) 4/3 "4/3" nil))) (when (fboundp (quote set-active)) (set-active box nil)) box) (let ((box (om-load-boxcall (quote bastype) "aux 3" (quote t) (quote nil) (om-make-point 818 269) (om-make-point 44 28) 6000 "6000" nil))) (when (fboundp (quote set-active)) (set-active box nil)) box) (let ((box (om-load-boxcall (quote bastype) "aux 2" (quote t) (quote nil) (om-make-point 869 267) (om-make-point 44 28) 7200 "7200" nil))) (when (fboundp (quote set-active)) (set-active box nil)) box) (let ((box (om-load-boxcall (quote bastype) "aux" (quote t) (quote nil) (om-make-point 914 269) (om-make-point 32 28) 16 "16" nil))) (when (fboundp (quote set-active)) (set-active box nil)) box) (let ((box (om-load-boxcall (quote genfun) "MOS-VERIFY" (quote mos-verify) (quote ((om-load-inputfun (quote input-funbox) "list of notes - object-MOS" "NOTELIST" (list 6754 6308 7062 6616 6178)))) (om-make-point 828 385) nil nil nil nil 1))) (when (fboundp (quote set-active)) (set-active box nil)) box) (let ((box (om-load-editor-box1 "TEXT-BOX" (quote text-box) (quote ((om-load-inputfun (quote input-funbox) "dialog-item text (string)" "text" "untitled"))) (om-make-point 270 349) (om-make-point 218 40) (om-make-dialog-item (quote text-box) (om-make-point 1 1) (om-make-point 190 16) "(L L L s L L s L L L s L L s L L s)" :font (om-make-font "Verdana" 11.25 :family "Verdana" :style (quote (:plain)) :mode (quote nil))) nil nil (pairlis (quote (winsize winpos)) (list (om-make-point 335 275) (om-make-point 10 40))) nil nil nil nil))) (when (fboundp (quote set-active)) (set-active box nil)) box))) (quote ((1 0 0 0 nil 0) (2 0 0 1 nil 0) (3 0 0 2 nil 0) (10 0 0 3 nil 0) (9 0 0 4 nil 0) (0 0 12 0 nil 0) (15 0 14 0 nil 0) (16 0 14 1 nil 0) (17 0 14 2 nil 0) (18 0 14 3 nil 0) (14 0 19 0 nil 0) (19 0 20 0 nil 0))) nil 6.17))
