; OM File Header - Saved 2021/03/18 12:06:52
; (6.18 :patc (om-make-point 820 10) (om-make-point -8 0) (om-make-point 1604 650) "" 183 0 nil "2021/03/18 12:06:52")
; End File Header
(in-package :om)(load-lib-for (quote ("OM-JI")))(setf *om-current-persistent* (om-load-patch1 "WILSON - Moment of Symmetry" (quote ((let ((box (om-load-boxcall (quote bastype) "aux 7" (quote t) (quote nil) (om-make-point 1061 472) (om-make-point 28 32) 2 "2" nil))) (when (fboundp (quote set-active)) (set-active box nil)) box) (let ((box (om-load-boxcall (quote bastype) "aux 4" (quote t) (quote nil) (om-make-point 1003 449) (om-make-point 36 32) 60 "60" nil))) (when (fboundp (quote set-active)) (set-active box nil)) box) (let ((box (om-load-boxcall (quote bastype) "aux 3" (quote t) (quote nil) (om-make-point 947 476) (om-make-point 41 32) 4/3 "4/3" nil))) (when (fboundp (quote set-active)) (set-active box nil)) box) (let ((box (om-load-boxcall (quote genfun) "MOS-CHECK" (quote mos-check) (quote ((om-load-inputfun (quote input-funbox) "Just Intonation interval" "RATIO" 4/3) (om-load-inputfun (quote input-funbox) "sobreposition" "SOBREPOSITION" 60) (om-load-inputfun (quote input-funbox) "range of check" "RANGE" 2))) (om-make-point 958 515) nil nil nil nil 1))) (when (fboundp (quote set-active)) (set-active box nil)) box) (let ((box (om-load-boxcall (quote bastype) "list 3" (quote list) (quote nil) (om-make-point 1193 88) (om-make-point 27 30) 2 "2" nil))) (when (fboundp (quote set-active)) (set-active box nil)) box) (let ((box (om-load-boxcomment "comment 12" (om-make-point 141 80) (quote "range, 2 for one octave, 4 to 2 octaves. Etc...") nil (om-make-point 1217 10) nil (om-make-color 0 0 0) (om-make-font "Verdana" 12 :family "Verdana" :style (quote (:plain)) :mode (quote nil))))) (when (fboundp (quote set-active)) (set-active box nil)) box) (let ((box (om-load-boxcall (quote genfun) "MOS" (quote mos) (quote ((om-load-inputfun (quote input-funbox) "Fundamental note of sobreposition" "RATIO" 4/3) (om-load-inputfun (quote input-funbox) "Just Intonation interval" "SOBREPOSITION" 11) (om-load-inputfun (quote input-funbox) "High note" "RANGE" 2))) (om-make-point 1115 134) nil nil nil nil 1))) (when (fboundp (quote set-active)) (set-active box nil)) box) (let ((box (om-load-boxcomment "comment 11" (om-make-point 78 47) (quote "Intervalo gerador") "" (om-make-point 1011 35) nil (om-make-color 0 0 0) (om-make-font "Verdana" 12 :family "Verdana" :style (quote (:plain)) :mode (quote nil))))) (when (fboundp (quote set-active)) (set-active box nil)) box) (let ((box (om-load-boxcomment "comment 7" (om-make-point 96 40) (quote "Número de sobreposições.") "" (om-make-point 1113 11) nil (om-make-color 0 0 0) (om-make-font "Verdana" 12 :family "Verdana" :style (quote (:plain)) :mode (quote nil))))) (when (fboundp (quote set-active)) (set-active box nil)) box) (let ((box (om-load-boxcall (quote bastype) "aux 2" (quote t) (quote nil) (om-make-point 1026 83) (om-make-point 37 28) 4/3 "4/3" nil))) (when (fboundp (quote set-active)) (set-active box nil)) box) (let ((box (om-load-boxcall (quote bastype) "aux" (quote t) (quote nil) (om-make-point 1124 61) (om-make-point 32 28) 11 "11" nil))) (when (fboundp (quote set-active)) (set-active box nil)) box) (let ((box (om-load-boxcall (quote bastype) "list 2" (quote list) (quote nil) (om-make-point 752 100) (om-make-point 27 30) 2 "2" nil))) (when (fboundp (quote set-active)) (set-active box nil)) box) (let ((box (om-load-boxcomment "comment 6" (om-make-point 141 80) (quote "range, 2 for one octave, 4 to 2 octaves. Etc...") nil (om-make-point 776 22) nil (om-make-color 0 0 0) (om-make-font "Verdana" 12 :family "Verdana" :style (quote (:plain)) :mode (quote nil))))) (when (fboundp (quote set-active)) (set-active box nil)) box) (let ((box (om-load-boxcall (quote genfun) "MOS 2" (quote mos) (quote ((om-load-inputfun (quote input-funbox) "Fundamental note of sobreposition" "RATIO" 4/3) (om-load-inputfun (quote input-funbox) "Just Intonation interval" "SOBREPOSITION" 11) (om-load-inputfun (quote input-funbox) "High note" "RANGE" 2))) (om-make-point 674 146) nil nil nil nil 1))) (when (fboundp (quote set-active)) (set-active box nil)) box) (let ((box (om-load-boxcomment "comment 5" (om-make-point 78 47) (quote "Intervalo gerador") "" (om-make-point 570 47) nil (om-make-color 0 0 0) (om-make-font "Verdana" 12 :family "Verdana" :style (quote (:plain)) :mode (quote nil))))) (when (fboundp (quote set-active)) (set-active box nil)) box) (let ((box (om-load-boxcomment "comment 4" (om-make-point 96 40) (quote "Número de sobreposições.") "" (om-make-point 672 23) nil (om-make-color 0 0 0) (om-make-font "Verdana" 12 :family "Verdana" :style (quote (:plain)) :mode (quote nil))))) (when (fboundp (quote set-active)) (set-active box nil)) box) (let ((box (om-load-boxcall (quote bastype) "aux 6" (quote t) (quote nil) (om-make-point 585 95) (om-make-point 37 28) 4/3 "4/3" nil))) (when (fboundp (quote set-active)) (set-active box nil)) box) (let ((box (om-load-boxcall (quote bastype) "aux 5" (quote t) (quote nil) (om-make-point 683 73) (om-make-point 32 28) 11 "11" nil))) (when (fboundp (quote set-active)) (set-active box nil)) box) (let ((box (om-load-boxcall (quote genfun) "RT->MC" (quote rt->mc) (quote ((om-load-inputfun (quote input-funbox) "Convert list of ratios for midicent." "RATIO" 11/8) (om-load-inputfun (quote input-funbox) "This will be a note. This note will be the fundamental of the list of ratios." "FUNDAMENTAL" 6000))) (om-make-point 175 258) nil nil nil nil 1))) (when (fboundp (quote set-active)) (set-active box nil)) box) (let ((box (om-load-boxcall (quote bastype) "list" (quote list) (quote nil) (om-make-point 225 120) (om-make-point 27 30) 2 "2" nil))) (when (fboundp (quote set-active)) (set-active box nil)) box) (let ((box (om-load-boxcomment "comment" (om-make-point 141 80) (quote "range, 2 for one octave, 4 to 2 octaves. Etc...") nil (om-make-point 249 42) nil (om-make-color 0 0 0) (om-make-font "Verdana" 12 :family "Verdana" :style (quote (:plain)) :mode (quote nil))))) (when (fboundp (quote set-active)) (set-active box nil)) box) (let ((box (om-load-boxcall (quote genfun) "MOS 4" (quote mos) (quote ((om-load-inputfun (quote input-funbox) "Fundamental note of sobreposition" "RATIO" 4/3) (om-load-inputfun (quote input-funbox) "Just Intonation interval" "SOBREPOSITION" 11) (om-load-inputfun (quote input-funbox) "High note" "RANGE" 2))) (om-make-point 147 166) nil nil nil nil 1))) (when (fboundp (quote set-active)) (set-active box nil)) box) (let ((box (om-load-boxcomment "comment 14" (om-make-point 131 59) (quote "Este objeto somente sobrepõe os intervalos.") "" (om-make-point 328 156) nil (om-make-color 0 0 0) (om-make-font "Verdana" 27/2 :family "Verdana" :style (quote (:plain)) :mode (quote nil))))) (when (fboundp (quote set-active)) (set-active box nil)) box) (let ((box (om-load-boxcall (quote bastype) "aux 12" (quote t) (quote nil) (om-make-point 156 93) (om-make-point 32 28) 11 "11" nil))) (when (fboundp (quote set-active)) (set-active box nil)) box) (let ((box (om-load-boxcall (quote bastype) "aux 9" (quote t) (quote nil) (om-make-point 58 115) (om-make-point 37 28) 4/3 "4/3" nil))) (when (fboundp (quote set-active)) (set-active box nil)) box) (let ((box (om-load-boxcomment "comment 13" (om-make-point 96 40) (quote "Número de sobreposições.") "" (om-make-point 145 43) nil (om-make-color 0 0 0) (om-make-font "Verdana" 12 :family "Verdana" :style (quote (:plain)) :mode (quote nil))))) (when (fboundp (quote set-active)) (set-active box nil)) box) (let ((box (om-load-boxcomment "comment 10" (om-make-point 78 47) (quote "Intervalo gerador") "" (om-make-point 43 67) nil (om-make-color 0 0 0) (om-make-font "Verdana" 12 :family "Verdana" :style (quote (:plain)) :mode (quote nil))))) (when (fboundp (quote set-active)) (set-active box nil)) box) (let ((box (om-load-editor-box1 "CHORD-SEQ" (quote chord-seq) (quote ((om-load-inputfun (quote input-funbox) "object" "self" nil) (om-load-inputfun (quote input-funbox) "pitches (mc): list or list of lists" "lmidic" (list 6000)) (om-load-inputfun (quote input-funbox) "onsets (ms): list" "lonset" (list 0 500)) (om-load-inputfun (quote input-funbox) "durations (ms): list or list of lists" "ldur" (list 500)) (om-load-inputfun (quote input-funbox) "velocities (0-127): list or list of lists" "lvel" (list 100)) (om-load-inputfun (quote input-funbox) "offsets (ms): list or list of lists" "loffset" (list 0)) (om-load-inputfun (quote input-funbox) "MIDI channels (1-16): list or list of lists" "lchan" (list 1)) (om-load-inputfun (quote input-funbox) "relative chords duration (0-100)" "legato" 0))) (om-make-point 55 344) (om-make-point 344 92) (let ((newobj (when (find-class (quote chord-seq) nil) (make-instance (quote chord-seq) :lmidic (quote ((6000) (6498) (6996) (6294) (6792) (6090) (6588) (7086) (6384) (6882) (6180) (6678) (7200))) :lonset (quote (0 500 1000 1500 2000 2500 3000 3500 4000 4500 5000 5500 6000 6500)) :ldur (quote ((500) (500) (500) (500) (500) (500) (500) (500) (500) (500) (500) (500) (500))) :lvel (quote ((100) (100) (100) (100) (100) (100) (100) (100) (100) (100) (100) (100) (100))) :loffset (quote ((0) (0) (0) (0) (0) (0) (0) (0) (0) (0) (0) (0) (0))) :lchan (quote ((1) (1) (1) (1) (1) (1) (1) (1) (1) (1) (1) (1) (1))) :legato 0)))) (load-port-info newobj (quote ((0) (0) (0) (0) (0) (0) (0) (0) (0) (0) (0) (0) (0)))) (init-mus-color newobj (quote nil)) (set-extra-pairs newobj (quote nil)) (set-patch-pairs newobj (quote nil)) (set-name newobj nil) (set-tonalite newobj nil) newobj) nil nil (pairlis (quote (approx fontsize staff cmnpref deltapict outport inport player zoom notechancolor? grillestep mode winsize winpos score-mode obj-mode cursor-mode show-stems scale)) (list 16 24 (quote g) (let ((newobj (make-instance (quote edition-values)))) (setf (paper-size newobj) (om-make-point 600 800)) (setf (top-margin newobj) 2) (setf (left-margin newobj) 1) (setf (right-margin newobj) 1) (setf (bottom-margin newobj) 1) (setf (orientation newobj) nil) (setf (scale newobj) nil) (setf (system-space newobj) (quote (1))) (setf (system-color newobj) (quote nil)) (setf (line-space newobj) 1) (setf (title newobj) nil) (setf (show-title? newobj) nil) (setf (show-page? newobj) nil) (setf (sheet-id newobj) nil) (setf (page-mode newobj) nil) newobj) (om-make-point 0 0) nil nil (quote :osc-scoreplayer) 1 nil 1000 0 (om-make-point 618 260) (om-make-point 400 20) 0 1 (quote :normal) (quote t) nil)) t nil nil nil))) (when (fboundp (quote set-active)) (set-active box nil)) box) (let ((box (om-load-boxcomment "comment 9" (om-make-point 100 60) (quote "chord-seq$") "" (om-make-point 401 260) nil (om-make-color 0 0 0) (om-make-font "Verdana" 27/2 :family "Verdana" :style (quote (:plain)) :mode (quote nil))))) (when (fboundp (quote set-active)) (set-active box nil)) box) (let ((box (om-load-boxcomment "comment 8" (om-make-point 131 59) (quote "Este objeto somente sobrepõe os intervalos.") "" (om-make-point 865 165) nil (om-make-color 0 0 0) (om-make-font "Verdana" 27/2 :family "Verdana" :style (quote (:plain)) :mode (quote nil))))) (when (fboundp (quote set-active)) (set-active box nil)) box) (let ((box (om-load-boxcall (quote genfun) "MOS-VERIFY 2" (quote mos-verify) (quote ((om-load-inputfun (quote input-funbox) "list of notes - object-MOS" "NOTELIST" (list 6754 6308 7062 6616 6178)))) (om-make-point 642 213) nil nil nil nil 2))) (when (fboundp (quote set-active)) (set-active box nil)) box) (let ((box (om-load-editor-box1 "TEXT-BOX 2" (quote text-box) (quote ((om-load-inputfun (quote input-funbox) "dialog-item text (string)" "text" "untitled"))) (om-make-point 578 303) (om-make-point 163 40) (om-make-dialog-item (quote text-box) (om-make-point 1 1) (om-make-point 135 16) "(s s L s L s s L s L s L)" :font (om-make-font "Verdana" 12 :family "Verdana" :style (quote (:plain)) :mode (quote nil))) nil nil (pairlis (quote (winpos winsize)) (list (om-make-point 10 40) (om-make-point 335 275))) nil nil nil nil))) (when (fboundp (quote set-active)) (set-active box nil)) box) (let ((box (om-load-boxcomment "comment 3" (om-make-point 177 61) (quote "Este objeto verifica se a sobreposição é um MOS ou não") "" (om-make-point 702 230) nil (om-make-color 0 0 0) (om-make-font "Verdana" 27/2 :family "Verdana" :style (quote (:plain)) :mode (quote nil))))) (when (fboundp (quote set-active)) (set-active box nil)) box) (let ((box (om-load-boxcomment "comment 2" (om-make-point 212 94) (quote "Se a sobreposição for um MOS o objeto dará sua configuração interna. \"s\" para Intervalo pequeno e \"L\" para intervalo grande.") "" (om-make-point 751 308) nil (om-make-color 0 0 0) (om-make-font "Verdana" 27/2 :family "Verdana" :style (quote (:plain)) :mode (quote nil))))) (when (fboundp (quote set-active)) (set-active box nil)) box) (let ((box (om-load-boxcall (quote genfun) "MOS-VERIFY" (quote mos-verify) (quote ((om-load-inputfun (quote input-funbox) "list of notes - object-MOS" "NOTELIST" (list 6754 6308 7062 6616 6178)))) (om-make-point 1026 195) nil nil nil nil 2))) (when (fboundp (quote set-active)) (set-active box nil)) box) (let ((box (om-load-editor-box1 "TEXT-BOX" (quote text-box) (quote ((om-load-inputfun (quote input-funbox) "dialog-item text (string)" "text" "untitled"))) (om-make-point 979 276) (om-make-point 152 43) (om-make-dialog-item (quote text-box) (om-make-point 1 1) (om-make-point 124 19) "(s s L s L s s L s L s L)" :font (om-make-font "Verdana" 12 :family "Verdana" :style (quote (:plain)) :mode (quote nil))) nil nil (pairlis (quote (winpos winsize)) (list (om-make-point 10 40) (om-make-point 335 275))) nil nil nil nil))) (when (fboundp (quote set-active)) (set-active box nil)) box) (let ((box (om-load-boxcomment "comment" (om-make-point 212 94) (quote "Se a sobreposição NÃO for um MOS o objeto 'printa' a seguinte mensagem \"This is not a MOS.\"") "" (om-make-point 1142 282) nil (om-make-color 0 0 0) (om-make-font "Verdana" 27/2 :family "Verdana" :style (quote (:plain)) :mode (quote nil))))) (when (fboundp (quote set-active)) (set-active box nil)) box))) (quote ((2 0 3 0 nil 0) (1 0 3 1 nil 0) (0 0 3 2 nil 0) (9 0 6 0 nil 0) (10 0 6 1 nil 0) (4 0 6 2 nil 0) (16 0 13 0 nil 0) (17 0 13 1 nil 0) (11 0 13 2 nil 0) (21 0 18 0 nil 0) (24 0 21 0 nil 0) (23 0 21 1 nil 0) (19 0 21 2 nil 0) (18 0 27 1 nil 0) (13 0 30 0 nil 0) (30 0 31 0 nil 0) (6 0 34 0 nil 0) (34 0 35 0 nil 0))) nil 6.18))
